<svg width="32" height="32" viewBox="0 0 32 32" fill="none" xmlns="http://www.w3.org/2000/svg">
<g clip-path="url(#clip0_71_7)">
<circle cx="15.4827" cy="15.2111" r="14" fill="#422C61"/>
<mask id="path-2-outside-1_71_7" maskUnits="userSpaceOnUse" x="2.77212" y="1.81874" width="25.9304" height="27.9036" fill="black">
<rect fill="white" x="2.77212" y="1.81874" width="25.9304" height="27.9036"/>
<path d="M24.3181 14.8053L10.5536 27.7106L9.39133 23.9754L19.66 14.8088L19.6025 15.0543L19.4391 14.5294L19.6296 14.7112L5.96908 12.977L4.8106 9.25396L23.4673 12.071L24.3181 14.8053Z"/>
</mask>
<path d="M24.3181 14.8053L10.5536 27.7106L9.39133 23.9754L19.66 14.8088L19.6025 15.0543L19.4391 14.5294L19.6296 14.7112L5.96908 12.977L4.8106 9.25396L23.4673 12.071L24.3181 14.8053Z" fill="white"/>
<path d="M24.3181 14.8053L25.0021 15.5349L25.4591 15.1064L25.273 14.5082L24.3181 14.8053ZM10.5536 27.7106L9.59876 28.0078L10.073 29.532L11.2376 28.4402L10.5536 27.7106ZM9.39133 23.9754L8.72539 23.2294L8.24527 23.6579L8.43649 24.2725L9.39133 23.9754ZM19.66 14.8088L20.6336 15.0368L21.3554 11.9548L18.994 14.0628L19.66 14.8088ZM19.6025 15.0543L18.6476 15.3514L19.7387 18.8579L20.5761 15.2823L19.6025 15.0543ZM19.4391 14.5294L20.1295 13.806L17.3377 11.1417L18.4843 14.8265L19.4391 14.5294ZM19.6296 14.7112L19.5036 15.7032L22.5186 16.0859L20.32 13.9877L19.6296 14.7112ZM5.96908 12.977L5.01423 13.2741L5.20527 13.8881L5.84314 13.9691L5.96908 12.977ZM4.8106 9.25396L4.9599 8.26517L3.38147 8.02683L3.85576 9.55107L4.8106 9.25396ZM23.4673 12.071L24.4222 11.7739L24.236 11.1758L23.6166 11.0822L23.4673 12.071ZM23.6342 14.0758L9.86963 26.9811L11.2376 28.4402L25.0021 15.5349L23.6342 14.0758ZM11.5084 27.4135L10.3462 23.6783L8.43649 24.2725L9.59876 28.0078L11.5084 27.4135ZM10.0573 24.7214L20.3259 15.5548L18.994 14.0628L8.72539 23.2294L10.0573 24.7214ZM18.6863 14.5808L18.6288 14.8263L20.5761 15.2823L20.6336 15.0368L18.6863 14.5808ZM20.5573 14.7572L20.394 14.2323L18.4843 14.8265L18.6476 15.3514L20.5573 14.7572ZM18.7487 15.2528L18.9392 15.4346L20.32 13.9877L20.1295 13.806L18.7487 15.2528ZM19.7555 13.7191L6.09501 11.985L5.84314 13.9691L19.5036 15.7032L19.7555 13.7191ZM6.92392 12.6799L5.76544 8.95685L3.85576 9.55107L5.01423 13.2741L6.92392 12.6799ZM4.6613 10.2427L23.318 13.0598L23.6166 11.0822L4.9599 8.26517L4.6613 10.2427ZM22.5125 12.3681L23.3633 15.1025L25.273 14.5082L24.4222 11.7739L22.5125 12.3681Z" fill="#160F21" mask="url(#path-2-outside-1_71_7)"/>
</g>
<defs>
<clipPath id="clip0_71_7">
<rect width="32" height="32" fill="white"/>
</clipPath>
</defs>
</svg>
