<svg width="19" height="20" viewBox="0 0 19 20" fill="none" xmlns="http://www.w3.org/2000/svg">
<path d="M7.78258 5.65888L9.72822 3.39533C10.5022 2.49484 11.6159 1.95043 12.8243 1.88188C14.0326 1.81333 15.2367 2.22624 16.1715 3.02979C17.1064 3.83334 17.6954 4.96169 17.8092 6.16664C17.9229 7.37158 17.5519 8.5544 16.7779 9.45489L14.8323 11.7184M11.9138 15.1138L9.96816 17.3773C9.19413 18.2778 8.08045 18.8222 6.87209 18.8908C5.66374 18.9593 4.45971 18.5464 3.52486 17.7429C2.59002 16.9393 2.00094 15.811 1.88722 14.606C1.77351 13.4011 2.14446 12.2183 2.91848 11.3178L4.86412 9.05421M12.6666 7.10736L6.96895 13.736" stroke="white" stroke-opacity="0.8" stroke-width="2" stroke-linecap="round" stroke-linejoin="round"/>
</svg>
